<?xml version="1.0" encoding="utf-8"?>
<!-- Generator: Adobe Illustrator 26.0.2, SVG Export Plug-In . SVG Version: 6.00 Build 0)  -->
<svg version="1.1" id="Layer_1" xmlns="http://www.w3.org/2000/svg" xmlns:xlink="http://www.w3.org/1999/xlink" x="0px" y="0px"
	 viewBox="0 0 1920 1920" style="enable-background:new 0 0 1920 1920;" xml:space="preserve">
<g>
	<g>
		<path d="M1274.2,917.1c-6.6,5.3-12.1,7.8-13,16.7c-1.2,11.5-2.1,265-2.6,279.6c-0.4,10.5,265.1-148.1,264.5-175.9
			c-0.1-2.5,8.4-277.4,3.7-274.4C1498.7,780.8,1282.4,910.5,1274.2,917.1z M1508.1,798.6c-29.9,38.6-58.8,76.1-92,118.9
			c-23.8-12.7-33.8-20.1-53.2-34.4C1411.2,854.1,1465.2,823.8,1508.1,798.6z M1278.4,938.5c19.5-13.6,48.8-31.8,68.4-45.5
			c0.4,31.1,1.1,60.3,1.1,95.4c-19.3,24-45.1,50.4-69.9,81.3C1279.9,1026.9,1278.3,982.1,1278.4,938.5z M1277.3,1184.7
			c-0.5-0.3-2.3-36.5-1.9-48.3c0.7-17.8,2.1-26.6,1-49.8c14-4.4,45-19.3,58.5-22c5.7-1.2,9.9-0.6,11.1,4.4
			c4.4,18.5,1.9,47.2,5.6,70.9c-12.5,7.3-25,14.6-37.5,21.9C1310.4,1164.1,1280.4,1186.9,1277.3,1184.7z M1491.2,1043.4
			c-36.4,26-73.2,51.3-115.2,80.5c11.8-28.1,22.6-53.6,33.1-78.5c34.3-9.5,66.5-18.5,98.2-27.2c0.2,2,0.4,3.9,0.6,5.9
			C1502.3,1030.6,1496.8,1039.4,1491.2,1043.4z M1508.3,985.4c-10.8-7.1-15.1-11.9-39.1-28.2c-2.8-1.9-3.7-3.4-3.1-7.6
			c4.4-30.7,23.3-74,46.7-128.4L1508.3,985.4z"/>
		<path d="M1274.2,1260.1c-6.6,5.3-12.1,7.8-13,16.7c-1.2,11.5-2.1,265-2.6,279.6c-0.4,10.5,265.1-148.1,264.5-175.9
			c-0.1-2.5,8.4-277.4,3.7-274.4C1498.7,1123.8,1282.4,1253.5,1274.2,1260.1z M1508.1,1141.5c-29.9,38.6-58.8,76.1-92,118.9
			c-23.8-12.7-33.8-20.1-53.2-34.4C1411.2,1197.1,1465.2,1166.8,1508.1,1141.5z M1278.4,1281.4c19.5-13.6,48.8-31.8,68.4-45.5
			c0.4,31.1,1.1,60.3,1.1,95.4c-19.3,24-45.1,50.4-69.9,81.3C1279.9,1369.9,1278.3,1325.1,1278.4,1281.4z M1277.3,1527.7
			c-0.5-0.3-2.3-36.5-1.9-48.3c0.7-17.8,2.1-26.6,1-49.8c14-4.4,45-19.3,58.5-22c5.7-1.2,9.9-0.6,11.1,4.4
			c4.4,18.5,1.9,47.2,5.6,70.9c-12.5,7.3-25,14.6-37.5,21.9C1310.4,1507.1,1280.4,1529.9,1277.3,1527.7z M1491.2,1386.3
			c-36.4,26-73.2,51.3-115.2,80.5c11.8-28.1,22.6-53.6,33.1-78.5c34.3-9.5,66.5-18.5,98.2-27.2c0.2,2,0.4,3.9,0.6,5.9
			C1502.3,1373.5,1496.8,1382.3,1491.2,1386.3z M1508.3,1328.4c-10.8-7.1-15.1-11.9-39.1-28.2c-2.8-1.9-3.7-3.4-3.1-7.6
			c4.4-30.7,23.3-74,46.7-128.4L1508.3,1328.4z"/>
	</g>
	<path d="M1775.6,449c-34.7-53.7-95-84-152.5-111.9c-185.8-90.2-371.7-180.5-557.5-270.7c-41.7-20.3-85.3-40.9-131.7-40.6
		C885,26.2,839.7,50,796.6,73.2c-176.6,95.1-353.3,190.2-530,285.3c-50,26.9-102.6,56.2-131.2,105.3c-29.7,51-28.1,113.2-26.1,170.2
		c7.2,204.9,14.4,409.8,21.5,614.7c1.9,55.2,4.7,113.1,33.2,160.3c25,41.3,66.7,69.2,107,95.7c149.4,98.2,298.8,196.4,448.2,294.6
		c72.2,47.5,153.2,99.2,243.3,95.1c84.6-3.9,179.7-77.4,250.9-120.2c140.4-84.5,280.9-169,421.3-253.5c43.8-26.4,89-54,117.9-96.2
		c38.6-56.4,41.7-128.9,43.5-197.2c4.5-172.7,9.1-345.4,13.6-518.1c0.5-18.6,1-37.1,1.5-55.7C1813.2,583.2,1813.7,508,1775.6,449z
		 M900.2,1449.8c-0.3,89.8-0.8,179.6-1,269.4c-0.1,64.5-59.1,86.4-112,54.3c-97.9-59.4-193.7-122-289.3-185
		c-83.3-54.8-192.6-104.8-256.5-182.9c-74.5-91.1-57.5-225.1-60.7-334.7c0-146.7-8.3-294.1-12.9-440.8
		c-2.6-82.8,58.8-80.5,119.3-45.1c160,93.5,319,189.6,478,285.1c29.5,17.7,59.4,35.8,83.5,60.3c69,70,51.5,185.6,51.8,275.1
		C900.7,1287.1,900.6,1368.5,900.2,1449.8z M953.9,864.8c-22.7,4-49.3-3.5-74.7-13.9c-20.8-8.5-40.9-19.1-57.1-26.8
		c-44.8-21.3-87.6-46.6-130.2-71.8C596,695.6,500.1,638.9,404.3,582.2c-46.7-27.6-93.4-55.3-138.4-85.6
		c-16.5-11.1-32.8-27.2-27.5-47.7c0.8-3.1,2-6.3,3.9-9.6c4.3-7.7,10.8-13.9,18.4-18.5c5.9-3.5,11.8-7,17.6-10.5c0,0,0.1,0,0.1-0.1
		c199.3-119.3,403.7-243.1,620-328c11.8-4.2,25.3-3.7,37.5-5.3c31.5,2.8,60.1,11.2,87.3,26.6c24.7,14,50.6,25.6,76,38.3
		c38.9,19.4,77.9,38.8,116.8,58.2c1.1,0.5,2,1.2,3.1,1.7c68.9,32.3,137.8,64.2,206,97.5h0c68.2,33.3,135.7,68,201.6,105.8
		c15.2,8.7,30.4,17.7,45.4,26.7c5.5,3.3,10.1,8,12.9,13.8c12.8,26.5-24.6,39.3-40.9,49.5c-21.5,13.5-43.1,26.8-64.9,40
		c-42.6,25.7-85.7,50.8-128.9,75.5c-87.5,49.8-175.9,97.8-264.4,145.7c-50.4,27.3-100.8,54.7-153.3,77.9
		C1008.3,845.1,980.4,860.1,953.9,864.8z M1755.6,693c-1,14.4-2,27.1-2,36.2c0.1,113.9-5.2,227.5-7.9,341.3
		c-2,85.9,1.2,173.2-16.6,257.8c-16.9,80.9-78.6,112.8-144.3,153.4c-113.1,69.8-227.7,137.1-342.2,204.6
		c-51.5,30.3-201.3,154.5-250.6,66.3c-13.4-23.9-14.5-52.6-15-80c-1.1-57.1-0.9-114.3-0.8-171.5c0.3-97.7,0.6-195.4,0.9-293.1
		c0.3-93.6-12-195.2,53.5-272c58.1-68,147.8-97.1,222.3-142.1c134.8-81.6,276.6-151.1,416.3-224c17.7-9.2,38.3-18.7,56.8-11.1
		C1762.8,573.9,1759.1,643.6,1755.6,693z"/>
	<g>
		<path d="M1643.1,368.9c-9.1-22-55.5-29.1-99.9-35.2c-42.7-5.8-70.7-35.9-117.9-34.5c0,0,0,0,0,0c-14.3,0.4-30.5,3.7-49.3,11.6
			c-53.1,22-67.8,53.6-123.3,66.4c-55.5,12.7-100.1,10.5-135.3,4.6c-35.2-5.9-65.3-15.1-109.1-15.3c-43.8-0.3-124.2,36.8-156.7,35.1
			c-9.4-0.5,5.2-65,2.2-71.1c-8.8-17.4-33.8-29.9-43.5-47.4c-8.8-13-17.6-25.9-26.5-38.9c-10-11.1-5.7-28.2-42.1-25.8
			c-30,2-65.9,13-95.8,28.2c-34.3,17.4-45.3,31.8-42.4,42.4c8,29.4,19,57.7,27.9,86.7c2.9,9.3,5.3,18.8,3.2,29.6
			c-0.7,3.8-13.8,13.2-24.6,17.7c-10.7,4.6-27.2,7.7-38,8.9c-9.7,1.1-16.4-0.7-22.1-2.3c-36.7-10.3-72.7-21-109.1-31.5
			c-17.3-5-32.8-10.9-52.5-14.6c-24.9-4.7-73.3,8-109.7,26.8c0,0-0.1,0-0.1,0.1c-9.9,5.1-18.9,10.6-26.2,16.3
			c-12.7,9.9-16.4,17.1-13.7,22.3c1.8,3.5,6.4,6.1,12.9,7.9c32.1,9.1,66.4,17,97.8,26.4c43.4,13,84.6,27,127.2,40.4
			c24.6,7.7,56.8,12.2,73.9,23.1c35.5,22.7,90.7,36.2,132.7,55.8c23.5,11,53.3,19.2,75.6,30.7c18.4,9.5,29.6,22.2,44.8,33.1
			c22.8,16.4,46.1,32.5,69.6,48.5c13.1,8.9,23.4,19.2,41.5,25.8c15.8,5.8,39.4,7.9,61.9,10.4c22,2.4,45.1,4.5,71.1,4.5
			c27.9,0.1,73.8-14.7,105.1-32.4c30-17,41.6-36.2,22.7-40.9c-21.9-5.5-42.9-11.7-70-14.3c-35.5-3.5-61.8-11-75.8-24.7
			c-5-4.9-10.1-9.8-16.2-14.2c-33-24.2-64.5-49.1-100.4-72.1c-15-9.6-39.6-14.9-59.2-22.5c-18-7-44.6-10.9-50.4-22.4c0,0,0,0,0,0
			c-7.7-15.4-10.1-42,8.2-63.7c36.6-4.9,69.3,9.7,96.8,13c53.5,6.3,110.2,10.6,169.8,13c116.6,4.6,244.2,1.6,380-9
			c24.8-2,51.1-4.4,79.6-12.4c38.9-11,70.9-29.5,89.3-47.6C1640.7,391.5,1647,378.3,1643.1,368.9z"/>
	</g>
	<path d="M864.7,918.1c-25.4-25.8-56.8-44.7-87.8-63.4C609.8,754.4,442.8,653.5,274.6,555.2c-63.6-37.1-128.1-39.6-125.4,47.4
		c4.9,154.2,13.6,308.9,13.6,463.2c3.3,115.1-14.5,256,63.8,351.7c67.1,82,182,134.5,269.5,192.1c100.5,66.1,201.1,131.9,304,194.4
		c55.6,33.7,117.6,10.8,117.7-57c0.2-94.4,0.7-188.7,1.1-283.1c0.3-85.5,0.5-171,0.2-256.5C918.8,1113.2,937.2,991.8,864.7,918.1z
		 M411.5,1149.2c0,0-150.3-192.6-205.5-258.6l256.5,149.9l103.4-225.4l61,315.5l178.8,96.4l-159.1,93.5l122.7,380.2
		c-74.2-120.4-270.2-381-270.2-381l-184.8,74.6L411.5,1149.2z"/>
</g>
</svg>
